<?xml version="1.0" encoding="UTF-8"?>
<svg width="139px" height="29px" viewBox="0 0 139 29" version="1.1" xmlns="http://www.w3.org/2000/svg" xmlns:xlink="http://www.w3.org/1999/xlink">
    <!-- Generator: Sketch 48.2 (47327) - http://www.bohemiancoding.com/sketch -->
    <title>Combined Shape</title>
    <desc>Created with Sketch.</desc>
    <defs></defs>
    <g id="Desktop-HD" stroke="none" stroke-width="1" fill="none" fill-rule="evenodd" transform="translate(-57.000000, -39.000000)">
        <g id="Page-1" transform="translate(57.000000, 39.000000)" fill="#FFFFFF">
            <path d="M20.4309047,1 L39.5692397,1 C39.8660374,1 40.0735911,1.29225022 39.9753408,1.57143898 L30.4061733,28.713158 C30.2710792,29.095614 29.7286558,29.095614 29.5939711,28.713158 L20.3998983,2.63534724 L10.8304705,28.713158 C10.6902922,29.095614 10.1257444,29.095614 9.98514009,28.713158 L0.0256649945,1.57143898 C-0.0765927177,1.29225022 0.139426699,1 0.448330205,1 L20.4309047,1 Z M67,18.392093 L67,24.6449213 C67,24.8407526 66.808233,25 66.5720867,25 L48.4283204,25 C48.191767,25 48,24.8407526 48,24.6449213 L48,18.3550787 C48,18.158817 48.191767,18 48.4283204,18 L66.6290876,18 C66.8338833,18 67,18.1756026 67,18.392093 Z M124.5,29 C116.491871,29 110,22.5081289 110,14.5 C110,6.49187113 116.491871,0 124.5,0 C132.508129,0 139,6.49187113 139,14.5 C139,22.5081289 132.508129,29 124.5,29 Z M67,6.39209297 L67,12.6449213 C67,12.8407526 66.808233,13 66.5720867,13 L48.4283204,13 C48.191767,13 48,12.8407526 48,12.6449213 L48,6.3550787 C48,6.15881702 48.191767,6 48.4283204,6 L66.6290876,6 C66.8338833,6 67,6.17560256 67,6.39209297 Z M100.669165,12.1674869 C101.110278,14.3891623 101.110278,16.6108377 100.669165,18.8325131 L93.9614978,18.8325131 C92.6938156,21.8704874 89.7472437,24 86.3130378,24 C81.7220512,24 78,20.1945687 78,15.5002124 C78,10.8054313 81.7220512,7 86.3130378,7 C89.7472437,7 92.6938156,9.12993729 93.9614978,12.1674869 L100.669165,12.1674869 Z" id="Combined-Shape"></path>
        </g>
    </g>
</svg>